<svg width="23" height="16" viewBox="0 0 23 16" xmlns="http://www.w3.org/2000/svg">
<path d="M11.3333 0C6.33325 0 2.06325 3.31733 0.333252 8C2.06325 12.6827 6.33325 16 11.3333 16C16.3333 16 20.6033 12.6827 22.3333 8C20.6033 3.31733 16.3333 0 11.3333 0ZM11.3333 13.3333C8.57325 13.3333 6.33325 10.944 6.33325 8C6.33325 5.056 8.57325 2.66667 11.3333 2.66667C14.0933 2.66667 16.3333 5.056 16.3333 8C16.3333 10.944 14.0933 13.3333 11.3333 13.3333ZM11.3333 4.8C9.67325 4.8 8.33325 6.22933 8.33325 8C8.33325 9.77067 9.67325 11.2 11.3333 11.2C12.9933 11.2 14.3333 9.77067 14.3333 8C14.3333 6.22933 12.9933 4.8 11.3333 4.8Z" />
</svg>
